<svg data-logo="logo" xmlns="http://www.w3.org/2000/svg" viewBox="0 0 41 41"><path fill-rule="evenodd" clip-rule="evenodd" d="M9.005 3.678a20 20 0 0 0-3.847 3.514c4.59-.426 10.42.27 17.189 3.655 7.229 3.614 13.05 3.736 17.1 2.955a20 20 0 0 0-1.378-3.2c-4.637.49-10.582-.158-17.51-3.622-4.4-2.2-8.279-3.106-11.554-3.302M35.36 6.747A19.95 19.95 0 0 0 20.453.08c-1.74 0-3.428.222-5.037.64 2.18.594 4.494 1.464 6.931 2.682 5.073 2.536 9.452 3.353 13.013 3.345m4.953 10.961c-4.894.966-11.652.768-19.755-3.284-7.575-3.787-13.605-3.74-17.671-2.836q-.315.07-.615.147a20 20 0 0 0-1.263 3.64q.49-.132 1.01-.248c4.933-1.096 11.904-1.048 20.328 3.164 7.576 3.788 13.605 3.74 17.672 2.836q.21-.045.411-.095a20.3 20.3 0 0 0-.117-3.324m-.536 7.544c-4.846.848-11.407.522-19.219-3.383-7.575-3.788-13.605-3.74-17.671-2.837a20 20 0 0 0-2.431.703l-.003.345c0 11.046 8.954 20 20 20 9.257 0 17.045-6.29 19.324-14.828" fill="#7c5bde" style="opacity:1"/><g style="opacity:1" transform="translate(41 20.5)"/></svg>